<?xml version="1.0" encoding="UTF-8"?><svg id="Layer_1" xmlns="http://www.w3.org/2000/svg" xmlns:xlink="http://www.w3.org/1999/xlink" viewBox="0 0 329.16 427.45"><defs><style>.cls-1{fill:url(#linear-gradient-2);}.cls-2{fill:url(#linear-gradient-3);}.cls-3{fill:url(#linear-gradient);}.cls-4{fill:url(#linear-gradient-4);}</style><linearGradient id="linear-gradient" x1="111.78" y1="40.61" x2="370.7" y2="159.5" gradientTransform="matrix(1, 0, 0, 1, 0, 0)" gradientUnits="userSpaceOnUse"><stop offset=".16" stop-color="#045aff"/><stop offset=".68" stop-color="#a2fb4c"/></linearGradient><linearGradient id="linear-gradient-2" x1="65.58" y1="154.54" x2="80.39" y2="15.06" gradientTransform="matrix(1, 0, 0, 1, 0, 0)" gradientUnits="userSpaceOnUse"><stop offset="0" stop-color="#045aff"/><stop offset=".09" stop-color="#0e64f3"/><stop offset=".25" stop-color="#297fd4"/><stop offset=".47" stop-color="#55aca2"/><stop offset=".73" stop-color="#91ea5e"/><stop offset=".79" stop-color="#a2fb4c"/></linearGradient><linearGradient id="linear-gradient-3" x1="-536.82" y1="377.78" x2="-277.9" y2="496.68" gradientTransform="translate(-330.47 758.64) rotate(-179.3)" xlink:href="#linear-gradient"/><linearGradient id="linear-gradient-4" x1="-583.02" y1="491.71" x2="-568.21" y2="352.23" gradientTransform="translate(-330.47 758.64) rotate(-179.3)" xlink:href="#linear-gradient-2"/></defs><g><path class="cls-3" d="M40.91,61.38c30.94-19.9,63.32-37.45,95.86-54.65,17.92-9.48,37.08-8.75,54.86,.97,35.4,19.34,70.61,39.03,105.53,59.16,15.94,9.22,25.46,23.49,27.11,41.66,2.74,30.14,1.08,60.36,.75,90.52-.12,12.64-7.68,5.24-11.78,2.98-48.35-26.8-96.49-53.89-144.78-80.81-9.07-5.06-17.65-11.15-28.2-13.37-13.25-12.96-31.03-18.93-46.42-28.59-16.12-10.06-33.08-18.08-52.93-17.88Z"/><path class="cls-1" d="M40.91,61.38c19.85-.2,36.81,7.81,52.93,17.88,15.39,9.66,33.17,15.62,46.42,28.59-16.15,1.4-21.3,12.87-24.4,25.75-5.12,21.12-2.17,42.69-2.83,64.05-.21,7.17-.03,14.37-.03,24.61-30.61-19.37-63.17-30.9-88.33-53.4C-14.25,134-5.85,82.24,40.91,61.38Z"/></g><g><path class="cls-2" d="M287.2,367.57c-31.44,19.51-64.31,36.67-97.33,53.47-18.19,9.26-37.5,8.29-55.31-1.64-35.46-19.77-70.74-39.89-105.7-60.45-15.96-9.41-25.38-23.8-26.83-41.99-2.4-30.17-.36-60.37,.34-90.53,.28-12.64,7.81-5.14,11.91-2.84,48.43,27.39,96.65,55.07,145.02,82.58,9.08,5.17,17.67,11.36,28.27,13.72,13.21,13.12,31.06,19.31,46.47,29.15,16.13,10.26,33.14,18.49,53.16,18.52Z"/><path class="cls-4" d="M287.2,367.57c-20.02-.04-37.03-8.26-53.16-18.52-15.41-9.84-33.26-16.03-46.47-29.15,16.3-1.21,21.63-12.61,24.92-25.45,5.42-21.06,2.71-42.66,3.64-64.01,.3-7.17,.21-14.36,.33-24.6,30.63,19.74,63.33,31.67,88.42,54.48,38.83,35.32,29.72,86.97-17.68,107.26Z"/></g></svg>