<?xml version="1.0" encoding="UTF-8"?><svg id="Layer_1" xmlns="http://www.w3.org/2000/svg" xmlns:xlink="http://www.w3.org/1999/xlink" viewBox="0 0 702.21 147"><defs><style>.cls-1{fill:url(#linear-gradient-2);}.cls-2{fill:url(#linear-gradient-3);}.cls-3{fill:url(#linear-gradient);}.cls-4{fill:url(#linear-gradient-4);}</style><linearGradient id="linear-gradient" x1="37.93" y1="14.37" x2="125.78" y2="54.71" gradientTransform="matrix(1, 0, 0, 1, 0, 0)" gradientUnits="userSpaceOnUse"><stop offset=".16" stop-color="#045aff"/><stop offset=".68" stop-color="#a2fb4c"/></linearGradient><linearGradient id="linear-gradient-2" x1="22.25" y1="53.03" x2="27.27" y2="5.7" gradientTransform="matrix(1, 0, 0, 1, 0, 0)" gradientUnits="userSpaceOnUse"><stop offset="0" stop-color="#045aff"/><stop offset=".09" stop-color="#0e64f3"/><stop offset=".25" stop-color="#297fd4"/><stop offset=".47" stop-color="#55aca2"/><stop offset=".73" stop-color="#91ea5e"/><stop offset=".79" stop-color="#a2fb4c"/></linearGradient><linearGradient id="linear-gradient-3" x1="-43.29" y1="428.49" x2="44.55" y2="468.83" gradientTransform="translate(24.24 559.99) rotate(-179.3)" xlink:href="#linear-gradient"/><linearGradient id="linear-gradient-4" x1="-58.97" y1="467.15" x2="-53.95" y2="419.82" gradientTransform="translate(24.24 559.99) rotate(-179.3)" xlink:href="#linear-gradient-2"/></defs><g><g><path class="cls-3" d="M13.88,21.42C24.38,14.67,35.37,8.71,46.4,2.87c6.08-3.22,12.58-2.97,18.61,.33,12.01,6.56,23.96,13.24,35.81,20.07,5.41,3.13,8.64,7.97,9.2,14.14,.93,10.22,.37,20.48,.26,30.71-.04,4.29-2.61,1.78-4,1.01-16.41-9.09-32.74-18.29-49.12-27.42-3.08-1.72-5.99-3.78-9.57-4.54-4.5-4.4-10.53-6.42-15.75-9.7-5.47-3.41-11.22-6.13-17.96-6.07Z"/><path class="cls-1" d="M13.88,21.42c6.74-.07,12.49,2.65,17.96,6.07,5.22,3.28,11.25,5.3,15.75,9.7-5.48,.48-7.23,4.37-8.28,8.74-1.74,7.17-.74,14.48-.96,21.73-.07,2.43-.01,4.87-.01,8.35-10.38-6.57-21.43-10.48-29.97-18.12C-4.84,46.06-1.98,28.5,13.88,21.42Z"/></g><g><path class="cls-2" d="M97.45,125.31c-10.67,6.62-21.82,12.44-33.02,18.14-6.17,3.14-12.72,2.81-18.77-.56-12.03-6.71-24-13.54-35.86-20.51-5.41-3.19-8.61-8.08-9.1-14.25-.81-10.24-.12-20.48,.12-30.72,.09-4.29,2.65-1.74,4.04-.96,16.43,9.29,32.79,18.69,49.21,28.02,3.08,1.75,5.99,3.86,9.59,4.65,4.48,4.45,10.54,6.55,15.77,9.89,5.47,3.48,11.24,6.27,18.04,6.29Z"/><path class="cls-4" d="M97.45,125.31c-6.79-.01-12.56-2.8-18.04-6.29-5.23-3.34-11.28-5.44-15.77-9.89,5.53-.41,7.34-4.28,8.46-8.63,1.84-7.15,.92-14.47,1.23-21.72,.1-2.43,.07-4.87,.11-8.35,10.39,6.7,21.49,10.75,30,18.48,13.17,11.98,10.08,29.51-6,36.39Z"/></g></g><g><path d="M675.22,70h-10.43l-15.58,47h7.22l3.69-11.19h18.06l3.74,11.19h9.05l-15.75-47Zm-13,29.02l6.84-20.96,6.85,20.96h-13.69Z"/><rect x="694.37" y="70" width="7.84" height="8.16"/><rect x="694.37" y="82.22" width="7.84" height="34.78"/></g><g><path d="M121.48,110.43l24.96-5.33c2.99,14.14,14.48,21.21,34.46,21.21,9.12,0,16.13-1.81,21.04-5.43,4.91-3.62,7.36-8.11,7.36-13.48,0-3.9-1.11-7.5-3.34-10.81-2.23-3.31-7-5.9-14.31-7.78l-27.26-7.1c-9.33-2.44-16.22-5.21-20.68-8.31-4.46-3.1-8.03-7.47-10.7-13.11-2.68-5.64-4.02-11.67-4.02-18.07,0-12.75,4.73-22.97,14.2-30.66C152.67,3.85,164.78,0,179.54,0c12.25,0,23.2,2.68,32.84,8.04,9.64,5.36,15.78,12.96,18.43,22.78l-24.44,6.06c-3.76-10.79-12.53-16.19-26.32-16.19-8.01,0-14.12,1.67-18.33,5.01-4.21,3.34-6.32,7.59-6.32,12.75,0,8.15,6.61,13.86,19.84,17.13l24.23,6.06c14.69,3.69,24.54,9.14,29.55,16.35,5.01,7.21,7.52,15.17,7.52,23.87,0,14-5.27,25.02-15.82,33.07-10.55,8.04-24.21,12.07-40.99,12.07-14.13,0-26.51-2.96-37.12-8.88-10.62-5.92-17.67-15.15-21.15-27.69Z"/><path d="M289.29,146.89c-15.6,0-27.5-5.51-35.71-16.55-8.22-11.03-12.32-23.68-12.32-37.93,0-15.35,4.54-28.13,13.63-38.34,9.08-10.21,21.08-15.32,35.98-15.32,14.13,0,25.74,4.97,34.83,14.9,9.08,9.94,13.63,22.86,13.63,38.75s-4.72,29.55-14.15,39.53c-9.43,9.97-21.39,14.96-35.87,14.96Zm.84-19.33c16.01,0,24.02-11.75,24.02-35.26,0-10.62-1.92-19-5.74-25.13-3.83-6.13-9.71-9.2-17.65-9.2s-14.31,3.17-18.27,9.51c-3.97,6.34-5.95,14.75-5.95,25.24,0,11.31,2.1,19.94,6.32,25.9,4.21,5.96,9.97,8.94,17.28,8.94Z"/><path d="M375.64,147h-23.81V0h23.81V147Z"/><path d="M418.77,147h-23.81V0h23.81V147Z"/><path d="M505.23,111.38l21.51,2.91c-2.79,9.49-8.22,17.31-16.29,23.47-8.08,6.16-18.21,9.24-30.39,9.24-14.62,0-26.39-4.88-35.3-14.64-8.91-9.76-13.37-22.99-13.37-39.67s4.49-28.98,13.47-39.36c8.98-10.38,21.16-15.58,36.55-15.58s26.66,5.12,34.88,15.37c8.21,10.25,12.32,23.4,12.32,39.47l-.1,2.7h-72.37c0,7.13,.68,12.84,2.04,17.14,1.36,4.29,4.05,8.03,8.09,11.22,4.04,3.19,9.08,4.78,15.14,4.78,11.76,0,19.7-5.68,23.81-17.03Zm-1.46-31.36c-.07-7.55-2.35-13.71-6.84-18.49-4.49-4.78-10.04-7.17-16.66-7.17s-12.01,2.23-16.39,6.7c-4.39,4.47-6.96,10.78-7.73,18.95h47.62Z"/><path d="M631.37,144.82h-22.66c-2.02-6.37-3.24-13.43-3.65-21.19-6.34,15.58-18.24,23.37-35.72,23.37-10.51,0-18.95-3.06-25.32-9.19-6.37-6.13-9.55-13.83-9.55-23.11,0-24.09,21.27-36.14,63.81-36.14,1.67,0,3.93,.04,6.79,.1v-7.89c0-10.87-7.45-16.3-22.35-16.3s-22.7,5.44-24.64,16.3l-20.26-3.01c1.11-8.72,5.64-15.91,13.58-21.55,7.94-5.64,19.42-8.46,34.46-8.46,8.15,0,14.79,.67,19.95,2.03,5.15,1.35,9.5,3.63,13.05,6.85,3.55,3.22,6,6.72,7.36,10.49,1.36,3.77,2.04,10.16,2.04,19.16v47.36c0,6.85,1.04,13.92,3.13,21.19Zm-26.32-53.38c-30.77,0-46.16,7.31-46.16,21.91,0,4.36,1.55,8.08,4.65,11.16,3.1,3.08,7.78,4.62,14.05,4.62,9.05,0,15.89-2.86,20.52-8.57,4.63-5.71,6.95-12.2,6.95-19.47v-9.66Z"/></g></svg>